<svg id="Layer_1" enable-background="new 0 0 511.781 511.781" height="512" viewBox="0 0 511.781 511.781" width="512" xmlns="http://www.w3.org/2000/svg"><path d="m461.964 429.533c-16.769-65.397-91.648-44.244-134.199-66.175-13.837-7.991-16.883-37.215-21.287-49.868 10.327-5.573 19.885-12.869 28.341-21.759 5.794-6.091 10.865-12.714 15.178-19.753h17.229c27.69 0 50.219-22.528 50.219-50.219 0-27.658-21.87-49.415-50.064-50.183v-26.316h94.211c8.284 0 15-6.716 15-15s-6.716-15-15-15h-76.882c-7.45-64.664-62.434-115.066-129.018-115.255-.032 0-.062-.005-.094-.005-.019 0-.037.003-.056.003-.075 0-.15-.003-.225-.003-71.827 0-130.261 58.435-130.261 130.261 0 7.102 4.941 13.037 11.57 14.591l4.223 26.783c-26.315 1.541-47.254 23.429-47.254 50.125 0 27.691 22.528 50.219 50.219 50.219h18.729c3.828 6.01 8.176 11.743 13.017 17.094 7.68 8.488 16.173 15.624 25.247 21.317-13.351 51.462-8.14 55.923-58.443 64.884-67.138 12.353-87.618 19.435-97.526 66.353-2.999 13.609-8.843 40.135-9.273 42.084-3.724 25.215 21.458 29.125 24.131 27.864.787.001 1.665.001 2.946.001h389.41c1.628-.037-1.508.077 2.228-.048 25.78-3.885 22.449-25.713 17.608-40.972-3.861-15.961-9.903-40.934-9.924-41.023zm-74.52-207.774c0 11.148-9.07 20.219-20.219 20.219h-4.192c2.86-10.305 4.346-21.06 4.346-32.024v-8.346c11.539.694 20.065 9.112 20.065 20.151zm-216.992-54.992-3.391-21.506h81.18zm184.005-51.506h-83.859v-84.076c43.165 6.632 77.352 40.87 83.859 84.076zm-113.859-84.167v84.167h-84.422c6.535-43.395 40.99-77.749 84.422-84.167zm-96.784 210.884c-11.148 0-20.219-9.07-20.219-20.219 0-10.966 8.78-19.9 19.658-20.192v6.55c0 11.325 1.834 22.765 5.302 33.86h-4.741zm41.311 9.397c-9.359-15.668-12.935-36.129-11.872-54.257l164.127-45.375c17.389 177.609-118.853 166.256-152.255 99.632zm70.192 75.045c7.79 0 15.46-.839 22.923-2.462 3.993 13.295 8.877 39.813 18.415 50.469-28.467 22.629-63.923 19.865-85.855.337 9.444-10.795 14.053-38.805 17.819-52.008 8.676 2.416 17.625 3.664 26.698 3.664zm-78.479 72.18c3.108-.777 7.084-2.364 10.958-4.278 41.156 38.815 97.665 30.866 132.63-.621 6.162 4.845 74.576 15.045 83.079 17.186-22.186 17.702-31.776 47.48-33.583 70.687h-228.055c-1.945-22.514-10.179-50.29-31.405-68.828zm-100.982 41.667c.941-4.271 2.694-8.247 5.084-11.763 10.002 5.259 26.888 19.054 30.785 53.07h-44.971zm324.209 41.307c3.783-33.02 19.803-46.985 29.888-52.584 2.948 4.089 12.068 47.127 13.736 52.584z"/></svg>