<svg id="Capa_1" enable-background="new 0 0 512 512" height="512" viewBox="0 0 512 512" width="512" xmlns="http://www.w3.org/2000/svg"><g><path d="m479 131.59h-80.91l-24.703-131.59h-234.774l-24.703 131.59h-80.91v30h35.469c-6.473 10.018-10.262 21.893-10.306 34.627-.06 17.368 6.658 33.708 18.916 46.009 11.829 11.87 27.439 18.575 44.123 19.031 4.719 23.924 15.557 45.667 30.8 63.475h-28.971c-48.264 0-87.529 39.266-87.529 87.529v99.739h441v-99.739c0-48.264-39.266-87.529-87.529-87.529h-28.556c15.677-18.295 26.102-40.076 30.514-63.496 34.739-1.36 62.675-29.791 62.796-64.562.043-12.627-3.511-24.701-10.157-35.084h35.43zm-334.565 0 6.228-33.176h210.675l6.228 33.176zm204.06-101.59 7.211 38.414h-199.412l7.211-38.414zm-260.333 166.32c.06-17.479 13.296-31.977 30.396-34.375v69.065c-7.641-.97-14.704-4.415-20.23-9.961-6.588-6.611-10.198-15.393-10.166-24.729zm101.084 159.06c15.584 8.787 33.021 14.6 51.555 16.665l-51.555 27.117zm133.508.235v43.547l-51.549-27.114c18.255-2.004 35.714-7.593 51.549-16.433zm-19.312-23.745c-14.59 7.208-30.749 11.021-47.498 11.02-.126 0-.256 0-.382-.001-16.854-.058-32.807-4.084-47.004-11.192v-31.963c0-8.271 6.729-15 15-15h2.442c11.515 0 22.033-4.347 30-11.486 7.967 7.14 18.485 11.486 30 11.486h2.442c8.271 0 15 6.729 15 15zm-237.942 80.391c0-31.722 25.808-57.529 57.529-57.529h36.217v94.106l81.754-43.001v76.163h-175.5zm381 0v69.739h-175.5v-76.163l81.754 43.001v-94.106h36.217c31.721-.001 57.529 25.807 57.529 57.529zm-113.058-102.425v-10.101c0-24.813-20.187-45-45-45h-2.442c-8.271 0-15-6.729-15-15h-30c0 8.271-6.729 15-15 15h-2.442c-24.813 0-45 20.187-45 45v9.694c-18.564-19.559-30-46.096-30-75.251v-72.588h214.77v73.916c0 27.943-10.596 54.241-29.886 74.33zm59.886-78.89v-69.065c7.641.97 14.704 4.415 20.23 9.961 6.588 6.61 10.198 15.393 10.166 24.729-.06 17.479-13.297 31.977-30.396 34.375z"/><path d="m196.145 193.035h30v30h-30z"/><path d="m285.855 193.035h30v30h-30z"/></g></svg>