<svg id="Layer_1" enable-background="new 0 0 512 512" height="512" viewBox="0 0 512 512" width="512" xmlns="http://www.w3.org/2000/svg"><g id="XMLID_47_"><g id="XMLID_166_"><path id="XMLID_197_" d="m511.659 214.847c-.687-2.562-2.362-4.746-4.659-6.072l-87-50.229v-37.982c0-5.523-4.478-10-10-10h-73.108l-176.302-101.788c-4.784-2.761-10.9-1.122-13.66 3.66l-56.654 98.128h-80.276c-5.522 0-10 4.477-10 10v320c0 5.523 4.478 10 10 10h235.79l91.21 52.66c1.575.909 3.294 1.341 4.99 1.341 3.456 0 6.818-1.793 8.67-5.001l28.29-49h31.05c5.522 0 10-4.477 10-10v-61.1l90.66-157.028c1.326-2.297 1.686-5.026.999-7.589zm-352.409-183.751 137.643 79.468h-183.524zm179.09 449.808-52.551-30.34h70.067zm61.66-50.34h-380v-300h380zm20-91.1v-157.824l68.34 39.456z"/><path id="XMLID_205_" d="m220 262.564c17.645 0 32-14.355 32-32s-14.355-32-32-32-32 14.355-32 32 14.355 32 32 32zm0-44c6.617 0 12 5.383 12 12s-5.383 12-12 12-12-5.383-12-12 5.383-12 12-12z"/><path id="XMLID_210_" d="m366 154.564h-111c-5.522 0-10 4.477-10 10s4.478 10 10 10h101v190.353l-63.191-93.478c-1.849-2.736-4.93-4.382-8.232-4.399-.018 0-.034 0-.052 0-3.282 0-6.357 1.611-8.226 4.313l-52.059 75.303-81.065-119.921c-1.85-2.735-4.931-4.382-8.233-4.399-.017 0-.034 0-.052 0-3.282 0-6.357 1.611-8.226 4.313l-62.664 90.644v-142.729h101c5.522 0 10-4.477 10-10s-4.478-10-10-10h-111c-5.522 0-10 4.477-10 10v232c0 5.523 4.478 10 10 10h312c5.522 0 10-4.477 10-10v-232c0-5.523-4.478-10-10-10zm-81.568 140.195 62.061 91.805h-95.275l-14.957-22.125zm-220.432 57.703 70.797-102.407 92.278 136.509h-163.075z"/><path id="XMLID_212_" d="m210 174.56c2.63 0 5.21-1.06 7.069-2.93 1.86-1.86 2.931-4.43 2.931-7.06 0-2.64-1.07-5.21-2.931-7.08-1.859-1.86-4.439-2.93-7.069-2.93s-5.21 1.07-7.07 2.93-2.93 4.44-2.93 7.08c0 2.63 1.069 5.2 2.93 7.06 1.86 1.87 4.44 2.93 7.07 2.93z"/></g></g></svg>